<?xml version="1.0" standalone="no"?>
<!DOCTYPE svg PUBLIC "-//W3C//DTD SVG 20010904//EN"
 "http://www.w3.org/TR/2001/REC-SVG-20010904/DTD/svg10.dtd">
<svg version="1.0" xmlns="http://www.w3.org/2000/svg"
 width="374.000000pt" height="374.000000pt" viewBox="0 0 374.000000 374.000000"
 preserveAspectRatio="xMidYMid meet">

<g transform="translate(0.000000,374.000000) scale(0.100000,-0.100000)"
fill="#000000" stroke="none">
<path d="M0 1870 l0 -1870 1870 0 1870 0 0 1870 0 1870 -1870 0 -1870 0 0
-1870z m1571 574 c281 -83 466 -361 429 -648 -17 -139 -65 -240 -159 -340
-119 -126 -258 -186 -429 -186 -117 0 -190 17 -286 68 -89 46 -199 154 -242
237 -58 112 -69 158 -68 295 0 139 18 204 85 316 39 64 137 160 203 199 135
79 319 102 467 59z m854 -24 c45 -17 121 -98 153 -163 62 -125 77 -203 77
-392 0 -147 -3 -181 -23 -248 -57 -197 -159 -316 -272 -317 -57 0 -132 50
-178 120 -166 249 -155 706 24 926 57 70 148 101 219 74z m427 -67 c21 -24 43
-91 59 -183 20 -111 18 -519 -3 -628 -20 -103 -55 -177 -83 -177 -114 0 -143
795 -35 973 22 36 40 40 62 15z"/>
</g>
</svg>
